<svg xmlns="http://www.w3.org/2000/svg" viewBox="0 0 250 98.66"><defs><style>.cls-1{fill:#f1f2f2;}.cls-2{fill:#ce9e41;}.cls-3{fill:#fff;}.cls-4{fill:#1b345e;}</style></defs><g id="Layer_2" data-name="Layer 2"><g id="Layer_1-2" data-name="Layer 1"><circle class="cls-1" cx="49.91" cy="49.93" r="37.7"/><path class="cls-2" d="M100.24,46.79l-10.18-1.9A40.28,40.28,0,0,0,51.82,9.56L49.93,0,48.16,9.56A40.29,40.29,0,0,0,10.1,44.93L0,46.93l9.82,1.8c0,.35,0,.71,0,1.06A40.28,40.28,0,0,0,48.35,90l1.7,8.63L51.63,90A40.26,40.26,0,0,0,90.35,49.79c0-.34,0-.67,0-1ZM49.83,86.19a36,36,0,1,1,36-36A36.06,36.06,0,0,1,49.83,86.19Z"/><path class="cls-3" d="M95,58.76h2v2.6a5.92,5.92,0,0,1,5.39-3.06,5.74,5.74,0,0,1,5.81,3.77,7,7,0,0,1,10.84-2c1.68,1.68,1.78,4,1.78,5.65v12.2h-2V65.68c0-1.37-.1-3.1-1.22-4.27a4.11,4.11,0,0,0-3.1-1.17C109,60.24,109,65.73,109,67V77.88h-2V66.19c0-1.32-.1-5.95-4.58-5.95-3.61,0-5.29,3.15-5.29,7.27V77.88H95Z"/><path class="cls-3" d="M131.86,78.05,122,58.31h2.34L133,75.4l7.58-17.09H143L129.31,89.4H127Z"/><path class="cls-2" d="M189.07,54.37h7.33v22.7h-7.33V74.32a7.58,7.58,0,0,1-6.72,3.51,10.74,10.74,0,0,1-8.5-3.46,12,12,0,0,1-3.31-8.5,13,13,0,0,1,3.51-9.16,11,11,0,0,1,7.89-3.1,8.51,8.51,0,0,1,7.13,3.3Zm-9.32,7.18a5.66,5.66,0,0,0-1.68,4.12,5.86,5.86,0,0,0,1.53,4.07,6,6,0,0,0,4.33,1.78,5.4,5.4,0,0,0,3.81-1.58,6,6,0,0,0,.1-8.45,6.13,6.13,0,0,0-4.07-1.57A5.78,5.78,0,0,0,179.75,61.55Z"/><path class="cls-2" d="M210.9,49.74V77.07h-7.84V49.74h-6.78V43.12h21.48v6.62Z"/><path class="cls-2" d="M228.62,56.05h13.54V43.12H250V77.07h-7.84V62.67H228.62v14.4h-7.83V43.12h7.83Z"/><path class="cls-2" d="M167,45.92c-2.7-2.39-5.95-2.8-8.91-2.8h-12v6.41h10.49A6.14,6.14,0,0,1,161,50.81a4.48,4.48,0,0,1,1.27,3.3A4.73,4.73,0,0,1,161,57.47a6,6,0,0,1-4.23,1.28H146.17V77.07H154V65.16h4.79c2.39,0,5.95-.26,8.65-3a11,11,0,0,0,2.9-8A10.46,10.46,0,0,0,167,45.92Z"/><polygon class="cls-2" points="146.15 41.34 139.19 46.72 146.21 51.26 146.15 41.34"/><path class="cls-4" d="M16.35,45.77A21.4,21.4,0,0,0,16,50.26a33.79,33.79,0,0,0,33.8,33.79S59,84.33,59,71.9c0-15.47-30.64-7.37-29.1-15.55,1.34-7.14,14.12-12.71,23.29-17.21-.94,0-1.9,0-2.89,0C33.69,39.1,16.35,45.77,16.35,45.77Z"/><path class="cls-4" d="M45.15,52.65c5.27,1.33,21.81,0,36.66,9.7A41,41,0,0,0,83.6,50.26a21.75,21.75,0,0,0-.39-4.94S76.31,41,60.46,39.54c-.52.36-1.11.75-1.71,1.13C45.59,48.88,39,51.09,45.15,52.65Z"/><path class="cls-2" d="M16.84,43.46c2.7-15.95,16.24-27,33-27,16.54,0,30.05,10.75,33,26.45v0c-32.13-13.4-66,.51-66,.51Z"/></g></g></svg>